<svg xmlns="http://www.w3.org/2000/svg" xmlns:xlink="http://www.w3.org/1999/xlink" contentStyleType="text/css" data-diagram-type="ACTIVITY" height="837px" preserveAspectRatio="none" style="width:694px;height:837px;background:#FFFFFF;" version="1.1" viewBox="0 0 694 837" width="694px" zoomAndPan="magnify"><defs/><g><rect fill="none" height="20.9531" style="stroke:none;stroke-width:1;" width="661.3589" x="15" y="12.7451"/><ellipse cx="145.3164" cy="48.6982" fill="#222222" rx="10" ry="10" style="stroke:#222222;stroke-width:1;"/><rect fill="#F1F1F1" height="33.9688" rx="12.5" ry="12.5" style="stroke:#181818;stroke-width:0.5;" width="111.2539" x="89.6895" y="78.6982"/><text fill="#000000" font-family="sans-serif" font-size="12" lengthAdjust="spacing" textLength="91.2539" x="99.6895" y="99.8369">&#1042;&#1099;&#1073;&#1086;&#1088; &#1090;&#1072;&#1088;&#1080;&#1092;&#1072;</text><rect fill="#F1F1F1" height="33.9688" rx="12.5" ry="12.5" style="stroke:#181818;stroke-width:0.5;" width="144.4766" x="73.0781" y="132.667"/><text fill="#000000" font-family="sans-serif" font-size="12" lengthAdjust="spacing" textLength="124.4766" x="83.0781" y="153.8057">&#1042;&#1099;&#1073;&#1086;&#1088; &#1076;&#1072;&#1090;&#1099; &#1085;&#1072;&#1095;&#1072;&#1083;&#1072;</text><rect fill="#F1F1F1" height="33.9688" rx="12.5" ry="12.5" style="stroke:#181818;stroke-width:0.5;" width="248.6328" x="21" y="235.0381"/><text fill="#000000" font-family="sans-serif" font-size="12" lengthAdjust="spacing" textLength="228.6328" x="31" y="256.1768">&#1058;&#1072;&#1088;&#1080;&#1092; &#171;&#1060;&#1080;&#1082;&#1089;&#187;: &#1074;&#1099;&#1073;&#1086;&#1088; &#1087;&#1088;&#1086;&#1089;&#1090;&#1088;&#1072;&#1085;&#1089;&#1090;&#1074;&#1072;</text><polygon fill="#F1F1F1" points="108.4063,186.6357,182.2266,186.6357,194.2266,198.6357,182.2266,210.6357,108.4063,210.6357,96.4063,198.6357,108.4063,186.6357" style="stroke:#181818;stroke-width:0.5;"/><text fill="#000000" font-family="sans-serif" font-size="11" lengthAdjust="spacing" textLength="29.3101" x="149.3164" y="220.8462">&#1060;&#1080;&#1082;&#1089;</text><text fill="#000000" font-family="sans-serif" font-size="11" lengthAdjust="spacing" textLength="73.8203" x="108.4063" y="202.4438">&#1058;&#1080;&#1087; &#1090;&#1072;&#1088;&#1080;&#1092;&#1072;?</text><polygon fill="#F1F1F1" points="145.3164,289.0068,157.3164,301.0068,145.3164,313.0068,133.3164,301.0068,145.3164,289.0068" style="stroke:#181818;stroke-width:0.5;"/><rect fill="#F1F1F1" height="33.9688" rx="12.5" ry="12.5" style="stroke:#181818;stroke-width:0.5;" width="206.5859" x="42.0234" y="440.9443"/><text fill="#000000" font-family="sans-serif" font-size="12" lengthAdjust="spacing" textLength="186.5859" x="52.0234" y="462.083">&#1055;&#1086;&#1076;&#1090;&#1074;&#1077;&#1088;&#1078;&#1076;&#1077;&#1085;&#1080;&#1077; &#1086;&#1092;&#1086;&#1088;&#1084;&#1083;&#1077;&#1085;&#1080;&#1103;</text><line style="stroke:#000000;stroke-width:1.5;" x1="15" x2="15" y1="12.7451" y2="825.1904"/><rect fill="#F1F1F1" height="33.9688" rx="12.5" ry="12.5" style="stroke:#181818;stroke-width:0.5;" width="276.4941" x="336.8184" y="333.0068"/><text fill="#000000" font-family="sans-serif" font-size="12" lengthAdjust="spacing" textLength="256.4941" x="346.8184" y="354.1455">&#1055;&#1088;&#1086;&#1074;&#1077;&#1088;&#1082;&#1072;: &#1090;&#1072;&#1088;&#1080;&#1092; &#1072;&#1082;&#1090;&#1080;&#1074;&#1077;&#1085;, &#1085;&#1077; &#1087;&#1086;&#1095;&#1072;&#1089;&#1086;&#1074;&#1086;&#1081;</text><rect fill="#F1F1F1" height="33.9688" rx="12.5" ry="12.5" style="stroke:#181818;stroke-width:0.5;" width="136.0449" x="407.043" y="386.9756"/><text fill="#000000" font-family="sans-serif" font-size="12" lengthAdjust="spacing" textLength="116.0449" x="417.043" y="408.1143">&#1055;&#1088;&#1086;&#1074;&#1077;&#1088;&#1082;&#1072; &#1073;&#1072;&#1083;&#1072;&#1085;&#1089;&#1072;</text><rect fill="#F1F1F1" height="33.9688" rx="12.5" ry="12.5" style="stroke:#181818;stroke-width:0.5;" width="145.3672" x="402.3818" y="494.9131"/><text fill="#000000" font-family="sans-serif" font-size="12" lengthAdjust="spacing" textLength="125.3672" x="412.3818" y="516.0518">&#1057;&#1086;&#1079;&#1076;&#1072;&#1085;&#1080;&#1077; &#1087;&#1086;&#1076;&#1087;&#1080;&#1089;&#1082;&#1080;</text><rect fill="#F1F1F1" height="33.9688" rx="12.5" ry="12.5" style="stroke:#181818;stroke-width:0.5;" width="146.8027" x="401.6641" y="548.8818"/><text fill="#000000" font-family="sans-serif" font-size="12" lengthAdjust="spacing" textLength="126.8027" x="411.6641" y="570.0205">&#1057;&#1087;&#1080;&#1089;&#1072;&#1085;&#1080;&#1077; &#1089; &#1073;&#1072;&#1083;&#1072;&#1085;&#1089;&#1072;</text><rect fill="#F1F1F1" height="33.9688" rx="12.5" ry="12.5" style="stroke:#181818;stroke-width:0.5;" width="142.7305" x="403.7002" y="602.8506"/><text fill="#000000" font-family="sans-serif" font-size="12" lengthAdjust="spacing" textLength="122.7305" x="413.7002" y="623.9893">&#1047;&#1072;&#1087;&#1080;&#1089;&#1100; &#1090;&#1088;&#1072;&#1085;&#1079;&#1072;&#1082;&#1094;&#1080;&#1080;</text><rect fill="#F1F1F1" height="33.9688" rx="12.5" ry="12.5" style="stroke:#181818;stroke-width:0.5;" width="340.8652" x="304.6328" y="705.2217"/><text fill="#000000" font-family="sans-serif" font-size="12" lengthAdjust="spacing" textLength="320.8652" x="314.6328" y="726.3604">&#1058;&#1072;&#1088;&#1080;&#1092; &#171;&#1060;&#1080;&#1082;&#1089;&#187;: &#1089;&#1086;&#1079;&#1076;&#1072;&#1085;&#1080;&#1077; &#1073;&#1088;&#1086;&#1085;&#1080;&#1088;&#1086;&#1074;&#1072;&#1085;&#1080;&#1103; &#1085;&#1072; &#1087;&#1077;&#1088;&#1080;&#1086;&#1076;</text><polygon fill="#F1F1F1" points="430.5149,656.8193,519.616,656.8193,531.616,668.8193,519.616,680.8193,430.5149,680.8193,418.5149,668.8193,430.5149,656.8193" style="stroke:#181818;stroke-width:0.5;"/><text fill="#000000" font-family="sans-serif" font-size="11" lengthAdjust="spacing" textLength="14.3462" x="479.0654" y="691.0298">&#1076;&#1072;</text><text fill="#000000" font-family="sans-serif" font-size="11" lengthAdjust="spacing" textLength="89.1011" x="430.5149" y="672.6274">&#1058;&#1072;&#1088;&#1080;&#1092; &#171;&#1060;&#1080;&#1082;&#1089;&#187;?</text><polygon fill="#F1F1F1" points="475.0654,759.1904,487.0654,771.1904,475.0654,783.1904,463.0654,771.1904,475.0654,759.1904" style="stroke:#181818;stroke-width:0.5;"/><ellipse cx="475.0654" cy="814.1904" fill="none" rx="11" ry="11" style="stroke:#222222;stroke-width:1;"/><ellipse cx="475.0654" cy="814.1904" fill="#222222" rx="6" ry="6" style="stroke:#222222;stroke-width:1;"/><line style="stroke:#000000;stroke-width:1.5;" x1="298.6328" x2="298.6328" y1="12.7451" y2="825.1904"/><line style="stroke:#000000;stroke-width:1.5;" x1="674.498" x2="674.498" y1="12.7451" y2="825.1904"/><line style="stroke:#181818;stroke-width:1;" x1="145.3164" x2="145.3164" y1="58.6982" y2="78.6982"/><polygon fill="#181818" points="141.3164,68.6982,145.3164,78.6982,149.3164,68.6982,145.3164,72.6982" style="stroke:#181818;stroke-width:1;"/><line style="stroke:#181818;stroke-width:1;" x1="145.3164" x2="145.3164" y1="112.667" y2="132.667"/><polygon fill="#181818" points="141.3164,122.667,145.3164,132.667,149.3164,122.667,145.3164,126.667" style="stroke:#181818;stroke-width:1;"/><line style="stroke:#181818;stroke-width:1;" x1="145.3164" x2="145.3164" y1="210.6357" y2="235.0381"/><polygon fill="#181818" points="141.3164,225.0381,145.3164,235.0381,149.3164,225.0381,145.3164,229.0381" style="stroke:#181818;stroke-width:1;"/><line style="stroke:#181818;stroke-width:1;" x1="194.2266" x2="279.6328" y1="198.6357" y2="198.6357"/><polygon fill="#181818" points="275.6328,242.0225,279.6328,252.0225,283.6328,242.0225,279.6328,246.0225" style="stroke:#181818;stroke-width:1;"/><line style="stroke:#181818;stroke-width:1;" x1="279.6328" x2="279.6328" y1="198.6357" y2="301.0068"/><line style="stroke:#181818;stroke-width:1;" x1="279.6328" x2="157.3164" y1="301.0068" y2="301.0068"/><polygon fill="#181818" points="167.3164,297.0068,157.3164,301.0068,167.3164,305.0068,163.3164,301.0068" style="stroke:#181818;stroke-width:1;"/><line style="stroke:#181818;stroke-width:1;" x1="145.3164" x2="145.3164" y1="269.0068" y2="289.0068"/><polygon fill="#181818" points="141.3164,279.0068,145.3164,289.0068,149.3164,279.0068,145.3164,283.0068" style="stroke:#181818;stroke-width:1;"/><line style="stroke:#181818;stroke-width:1;" x1="145.3164" x2="145.3164" y1="166.6357" y2="186.6357"/><polygon fill="#181818" points="141.3164,176.6357,145.3164,186.6357,149.3164,176.6357,145.3164,180.6357" style="stroke:#181818;stroke-width:1;"/><line style="stroke:#181818;stroke-width:1;" x1="475.0654" x2="475.0654" y1="366.9756" y2="386.9756"/><polygon fill="#181818" points="471.0654,376.9756,475.0654,386.9756,479.0654,376.9756,475.0654,380.9756" style="stroke:#181818;stroke-width:1;"/><line style="stroke:#181818;stroke-width:1;" x1="475.0654" x2="475.0654" y1="528.8818" y2="548.8818"/><polygon fill="#181818" points="471.0654,538.8818,475.0654,548.8818,479.0654,538.8818,475.0654,542.8818" style="stroke:#181818;stroke-width:1;"/><line style="stroke:#181818;stroke-width:1;" x1="475.0654" x2="475.0654" y1="582.8506" y2="602.8506"/><polygon fill="#181818" points="471.0654,592.8506,475.0654,602.8506,479.0654,592.8506,475.0654,596.8506" style="stroke:#181818;stroke-width:1;"/><line style="stroke:#181818;stroke-width:1;" x1="475.0654" x2="475.0654" y1="680.8193" y2="705.2217"/><polygon fill="#181818" points="471.0654,695.2217,475.0654,705.2217,479.0654,695.2217,475.0654,699.2217" style="stroke:#181818;stroke-width:1;"/><line style="stroke:#181818;stroke-width:1;" x1="531.616" x2="655.498" y1="668.8193" y2="668.8193"/><polygon fill="#181818" points="651.498,712.2061,655.498,722.2061,659.498,712.2061,655.498,716.2061" style="stroke:#181818;stroke-width:1;"/><line style="stroke:#181818;stroke-width:1;" x1="655.498" x2="655.498" y1="668.8193" y2="771.1904"/><line style="stroke:#181818;stroke-width:1;" x1="655.498" x2="487.0654" y1="771.1904" y2="771.1904"/><polygon fill="#181818" points="497.0654,767.1904,487.0654,771.1904,497.0654,775.1904,493.0654,771.1904" style="stroke:#181818;stroke-width:1;"/><line style="stroke:#181818;stroke-width:1;" x1="475.0654" x2="475.0654" y1="739.1904" y2="759.1904"/><polygon fill="#181818" points="471.0654,749.1904,475.0654,759.1904,479.0654,749.1904,475.0654,753.1904" style="stroke:#181818;stroke-width:1;"/><line style="stroke:#181818;stroke-width:1;" x1="475.0654" x2="475.0654" y1="636.8193" y2="656.8193"/><polygon fill="#181818" points="471.0654,646.8193,475.0654,656.8193,479.0654,646.8193,475.0654,650.8193" style="stroke:#181818;stroke-width:1;"/><line style="stroke:#181818;stroke-width:1;" x1="475.0654" x2="475.0654" y1="783.1904" y2="803.1904"/><polygon fill="#181818" points="471.0654,793.1904,475.0654,803.1904,479.0654,793.1904,475.0654,797.1904" style="stroke:#181818;stroke-width:1;"/><line style="stroke:#181818;stroke-width:1;" x1="145.3164" x2="145.3164" y1="313.0068" y2="318.0068"/><line style="stroke:#181818;stroke-width:1;" x1="145.3164" x2="475.0654" y1="318.0068" y2="318.0068"/><line style="stroke:#181818;stroke-width:1;" x1="475.0654" x2="475.0654" y1="318.0068" y2="333.0068"/><polygon fill="#181818" points="471.0654,323.0068,475.0654,333.0068,479.0654,323.0068,475.0654,327.0068" style="stroke:#181818;stroke-width:1;"/><line style="stroke:#181818;stroke-width:1;" x1="475.0654" x2="475.0654" y1="420.9443" y2="425.9443"/><line style="stroke:#181818;stroke-width:1;" x1="475.0654" x2="145.3164" y1="425.9443" y2="425.9443"/><line style="stroke:#181818;stroke-width:1;" x1="145.3164" x2="145.3164" y1="425.9443" y2="440.9443"/><polygon fill="#181818" points="141.3164,430.9443,145.3164,440.9443,149.3164,430.9443,145.3164,434.9443" style="stroke:#181818;stroke-width:1;"/><line style="stroke:#181818;stroke-width:1;" x1="145.3164" x2="145.3164" y1="474.9131" y2="479.9131"/><line style="stroke:#181818;stroke-width:1;" x1="145.3164" x2="475.0654" y1="479.9131" y2="479.9131"/><line style="stroke:#181818;stroke-width:1;" x1="475.0654" x2="475.0654" y1="479.9131" y2="494.9131"/><polygon fill="#181818" points="471.0654,484.9131,475.0654,494.9131,479.0654,484.9131,475.0654,488.9131" style="stroke:#181818;stroke-width:1;"/><text fill="#000000" font-family="sans-serif" font-size="18" lengthAdjust="spacing" textLength="87.3545" x="113.1392" y="29.4531">&#1059;&#1095;&#1072;&#1089;&#1090;&#1085;&#1080;&#1082;</text><text fill="#000000" font-family="sans-serif" font-size="18" lengthAdjust="spacing" textLength="80.332" x="446.3994" y="29.4531">&#1057;&#1080;&#1089;&#1090;&#1077;&#1084;&#1072;</text><!--SRC=[VL8nJiD04EpzYYs9n0liWhSWaOWq0H6NBk88GH4a91fA59AEvXB5SDZOblA2tHynkyO4on6DJtSxCpixwuHNSizEKfbpoPxp99Z6vpTn4FAJB7Z3bSm8DISpzdBBBkfKU8VAN1O4ibCXBXGo7j49lqAkxd3F1XHV3YUehRMLf8E0A0Jm1q7xjxQoBqBYxQ5F3KIbBd4wBitlLbiD9nVZKP3m4WBwcF4NkmGcNvG1J8OpPnV-SKAGo77rMkRoLDrdw84EbeNnAlwC-Z84GpQaUj3-IJz0a43PcKEblIEbp8feKY48J0INHVCeZz4n-qj8V6YyBR5MJNo1Wn4V6QQvjXX9U_P2ViR5OF90RNnGrWJkmFA_spgsXCF6uEJ_RLbi7SSRYqv7R29qpRZsh-WycetNgTejJkEhwsy0]--></g></svg>