<svg xmlns="http://www.w3.org/2000/svg" xmlns:xlink="http://www.w3.org/1999/xlink" contentStyleType="text/css" data-diagram-type="ACTIVITY" height="730px" preserveAspectRatio="none" style="width:1475px;height:730px;background:#FFFFFF;" version="1.1" viewBox="0 0 1475 730" width="1475px" zoomAndPan="magnify"><defs/><g><rect fill="none" height="20.9531" style="stroke:none;stroke-width:1;" width="1442.0562" x="15" y="12.7451"/><ellipse cx="339.564" cy="48.6982" fill="#222222" rx="10" ry="10" style="stroke:#222222;stroke-width:1;"/><rect fill="#F1F1F1" height="33.9688" rx="12.5" ry="12.5" style="stroke:#181818;stroke-width:0.5;" width="256.8418" x="211.1431" y="78.6982"/><text fill="#000000" font-family="sans-serif" font-size="12" lengthAdjust="spacing" textLength="236.8418" x="221.1431" y="99.8369">&#1042;&#1099;&#1073;&#1086;&#1088; &#1087;&#1088;&#1086;&#1089;&#1090;&#1088;&#1072;&#1085;&#1089;&#1090;&#1074;&#1072; &#1080; &#1076;&#1072;&#1090;&#1099;/&#1074;&#1088;&#1077;&#1084;&#1077;&#1085;&#1080;</text><rect fill="#F1F1F1" height="33.9688" rx="12.5" ry="12.5" style="stroke:#181818;stroke-width:0.5;" width="262.4727" x="208.3276" y="186.6357"/><text fill="#000000" font-family="sans-serif" font-size="12" lengthAdjust="spacing" textLength="242.4727" x="218.3276" y="207.7744">&#1042;&#1099;&#1073;&#1086;&#1088; &#1090;&#1080;&#1087;&#1072;: &#1088;&#1072;&#1079;&#1086;&#1074;&#1086;&#1077; &#1080;&#1083;&#1080; &#1087;&#1086; &#1087;&#1086;&#1076;&#1087;&#1080;&#1089;&#1082;&#1077;</text><rect fill="#F1F1F1" height="33.9688" rx="12.5" ry="12.5" style="stroke:#181818;stroke-width:0.5;" width="243.5059" x="21" y="284.6045"/><text fill="#000000" font-family="sans-serif" font-size="12" lengthAdjust="spacing" textLength="223.5059" x="31" y="305.7432">&#1056;&#1072;&#1079;&#1086;&#1074;&#1086;&#1077;: &#1074;&#1099;&#1073;&#1086;&#1088; &#1087;&#1086;&#1095;&#1072;&#1089;&#1086;&#1074;&#1086;&#1075;&#1086; &#1090;&#1072;&#1088;&#1080;&#1092;&#1072;</text><rect fill="#F1F1F1" height="33.9688" rx="12.5" ry="12.5" style="stroke:#181818;stroke-width:0.5;" width="275.1523" x="398.7988" y="284.6045"/><text fill="#000000" font-family="sans-serif" font-size="12" lengthAdjust="spacing" textLength="255.1523" x="408.7988" y="305.7432">&#1055;&#1086; &#1087;&#1086;&#1076;&#1087;&#1080;&#1089;&#1082;&#1077;: &#1074;&#1099;&#1073;&#1086;&#1088; &#1072;&#1082;&#1090;&#1080;&#1074;&#1085;&#1086;&#1081; &#1087;&#1086;&#1076;&#1087;&#1080;&#1089;&#1082;&#1080;</text><rect fill="#F1F1F1" height="33.9688" rx="12.5" ry="12.5" style="stroke:#181818;stroke-width:0.5;" width="248.375" x="215.3765" y="426.542"/><text fill="#000000" font-family="sans-serif" font-size="12" lengthAdjust="spacing" textLength="228.375" x="225.3765" y="447.6807">&#1054;&#1087;&#1094;&#1080;&#1086;&#1085;&#1072;&#1083;&#1100;&#1085;&#1086;: &#1087;&#1088;&#1080;&#1074;&#1103;&#1079;&#1082;&#1072; &#1091;&#1095;&#1072;&#1089;&#1090;&#1085;&#1080;&#1082;&#1086;&#1074;</text><rect fill="#F1F1F1" height="33.9688" rx="12.5" ry="12.5" style="stroke:#181818;stroke-width:0.5;" width="217.3086" x="230.9097" y="480.5107"/><text fill="#000000" font-family="sans-serif" font-size="12" lengthAdjust="spacing" textLength="197.3086" x="240.9097" y="501.6494">&#1055;&#1086;&#1076;&#1090;&#1074;&#1077;&#1088;&#1078;&#1076;&#1077;&#1085;&#1080;&#1077; &#1073;&#1088;&#1086;&#1085;&#1080;&#1088;&#1086;&#1074;&#1072;&#1085;&#1080;&#1103;</text><line style="stroke:#000000;stroke-width:1.5;" x1="15" x2="15" y1="12.7451" y2="718.3857"/><rect fill="#F1F1F1" height="33.9688" rx="12.5" ry="12.5" style="stroke:#181818;stroke-width:0.5;" width="222.8281" x="897.1655" y="132.667"/><text fill="#000000" font-family="sans-serif" font-size="12" lengthAdjust="spacing" textLength="202.8281" x="907.1655" y="153.8057">&#1055;&#1088;&#1086;&#1074;&#1077;&#1088;&#1082;&#1072;: &#1089;&#1083;&#1086;&#1090; &#1074; &#1088;&#1072;&#1073;&#1086;&#1095;&#1080;&#1093; &#1095;&#1072;&#1089;&#1072;&#1093;</text><polygon fill="#F1F1F1" points="995.1304,240.6045,1022.0288,240.6045,1034.0288,252.6045,1022.0288,264.6045,995.1304,264.6045,983.1304,252.6045,995.1304,240.6045" style="stroke:#181818;stroke-width:0.5;"/><text fill="#000000" font-family="sans-serif" font-size="11" lengthAdjust="spacing" textLength="26.8984" x="995.1304" y="256.4126">&#1058;&#1080;&#1087;?</text><text fill="#000000" font-family="sans-serif" font-size="11" lengthAdjust="spacing" textLength="45.9336" x="937.1968" y="250.0103">&#1056;&#1072;&#1079;&#1086;&#1074;&#1086;&#1077;</text><text fill="#000000" font-family="sans-serif" font-size="11" lengthAdjust="spacing" textLength="73.8257" x="1034.0288" y="250.0103">&#1055;&#1086; &#1087;&#1086;&#1076;&#1087;&#1080;&#1089;&#1082;&#1077;</text><rect fill="#F1F1F1" height="33.9688" rx="12.5" ry="12.5" style="stroke:#181818;stroke-width:0.5;" width="255.6348" x="683.9512" y="338.5732"/><text fill="#000000" font-family="sans-serif" font-size="12" lengthAdjust="spacing" textLength="235.6348" x="693.9512" y="359.7119">&#1056;&#1072;&#1079;&#1086;&#1074;&#1086;&#1077;: &#1087;&#1088;&#1086;&#1074;&#1077;&#1088;&#1082;&#1072; &#1073;&#1072;&#1083;&#1072;&#1085;&#1089;&#1072; &#1080; &#1090;&#1072;&#1088;&#1080;&#1092;&#1072;</text><rect fill="#F1F1F1" height="33.9688" rx="12.5" ry="12.5" style="stroke:#181818;stroke-width:0.5;" width="491.6094" x="959.5859" y="338.5732"/><text fill="#000000" font-family="sans-serif" font-size="12" lengthAdjust="spacing" textLength="471.6094" x="969.5859" y="359.7119">&#1055;&#1086; &#1087;&#1086;&#1076;&#1087;&#1080;&#1089;&#1082;&#1077;: &#1087;&#1088;&#1086;&#1074;&#1077;&#1088;&#1082;&#1072; &#1086;&#1089;&#1090;&#1072;&#1090;&#1082;&#1072; &#1084;&#1080;&#1085;&#1091;&#1090; &#1080; &#1087;&#1088;&#1080;&#1074;&#1103;&#1079;&#1082;&#1080; &#1090;&#1072;&#1088;&#1080;&#1092;&#1072; &#1082; &#1087;&#1088;&#1086;&#1089;&#1090;&#1088;&#1072;&#1085;&#1089;&#1090;&#1074;&#1091;</text><polygon fill="#F1F1F1" points="1008.5796,382.542,1020.5796,394.542,1008.5796,406.542,996.5796,394.542,1008.5796,382.542" style="stroke:#181818;stroke-width:0.5;"/><rect fill="#F1F1F1" height="33.9688" rx="12.5" ry="12.5" style="stroke:#181818;stroke-width:0.5;" width="306.459" x="855.3501" y="534.4795"/><text fill="#000000" font-family="sans-serif" font-size="12" lengthAdjust="spacing" textLength="286.459" x="865.3501" y="555.6182">&#1055;&#1088;&#1086;&#1074;&#1077;&#1088;&#1082;&#1072;: &#1085;&#1077;&#1090; &#1087;&#1077;&#1088;&#1077;&#1089;&#1077;&#1095;&#1077;&#1085;&#1080;&#1081; &#1087;&#1086; &#1087;&#1088;&#1086;&#1089;&#1090;&#1088;&#1072;&#1085;&#1089;&#1090;&#1074;&#1091;</text><rect fill="#F1F1F1" height="33.9688" rx="12.5" ry="12.5" style="stroke:#181818;stroke-width:0.5;" width="174.8457" x="921.1567" y="588.4482"/><text fill="#000000" font-family="sans-serif" font-size="12" lengthAdjust="spacing" textLength="154.8457" x="931.1567" y="609.5869">&#1057;&#1086;&#1079;&#1076;&#1072;&#1085;&#1080;&#1077; &#1073;&#1088;&#1086;&#1085;&#1080;&#1088;&#1086;&#1074;&#1072;&#1085;&#1080;&#1103;</text><rect fill="#F1F1F1" height="33.9688" rx="12.5" ry="12.5" style="stroke:#181818;stroke-width:0.5;" width="276.8281" x="870.1655" y="642.417"/><text fill="#000000" font-family="sans-serif" font-size="12" lengthAdjust="spacing" textLength="256.8281" x="880.1655" y="663.5557">&#1057;&#1087;&#1080;&#1089;&#1072;&#1085;&#1080;&#1077;: &#1073;&#1072;&#1083;&#1072;&#1085;&#1089; &#1080;&#1083;&#1080; &#1084;&#1080;&#1085;&#1091;&#1090;&#1099; &#1087;&#1086;&#1076;&#1087;&#1080;&#1089;&#1082;&#1080;</text><ellipse cx="1008.5796" cy="707.3857" fill="none" rx="11" ry="11" style="stroke:#222222;stroke-width:1;"/><ellipse cx="1008.5796" cy="707.3857" fill="#222222" rx="6" ry="6" style="stroke:#222222;stroke-width:1;"/><line style="stroke:#000000;stroke-width:1.5;" x1="677.9512" x2="677.9512" y1="12.7451" y2="718.3857"/><line style="stroke:#000000;stroke-width:1.5;" x1="1455.1953" x2="1455.1953" y1="12.7451" y2="718.3857"/><line style="stroke:#181818;stroke-width:1;" x1="339.564" x2="339.564" y1="58.6982" y2="78.6982"/><polygon fill="#181818" points="335.564,68.6982,339.564,78.6982,343.564,68.6982,339.564,72.6982" style="stroke:#181818;stroke-width:1;"/><line style="stroke:#181818;stroke-width:1;" x1="339.564" x2="339.564" y1="460.5107" y2="480.5107"/><polygon fill="#181818" points="335.564,470.5107,339.564,480.5107,343.564,470.5107,339.564,474.5107" style="stroke:#181818;stroke-width:1;"/><line style="stroke:#181818;stroke-width:1;" x1="811.7686" x2="811.7686" y1="372.542" y2="394.542"/><line style="stroke:#181818;stroke-width:1;" x1="811.7686" x2="996.5796" y1="394.542" y2="394.542"/><polygon fill="#181818" points="986.5796,390.542,996.5796,394.542,986.5796,398.542,990.5796,394.542" style="stroke:#181818;stroke-width:1;"/><line style="stroke:#181818;stroke-width:1;" x1="1205.3906" x2="1205.3906" y1="372.542" y2="394.542"/><line style="stroke:#181818;stroke-width:1;" x1="1205.3906" x2="1020.5796" y1="394.542" y2="394.542"/><polygon fill="#181818" points="1030.5796,390.542,1020.5796,394.542,1030.5796,398.542,1026.5796,394.542" style="stroke:#181818;stroke-width:1;"/><line style="stroke:#181818;stroke-width:1;" x1="1008.5796" x2="1008.5796" y1="568.4482" y2="588.4482"/><polygon fill="#181818" points="1004.5796,578.4482,1008.5796,588.4482,1012.5796,578.4482,1008.5796,582.4482" style="stroke:#181818;stroke-width:1;"/><line style="stroke:#181818;stroke-width:1;" x1="1008.5796" x2="1008.5796" y1="622.417" y2="642.417"/><polygon fill="#181818" points="1004.5796,632.417,1008.5796,642.417,1012.5796,632.417,1008.5796,636.417" style="stroke:#181818;stroke-width:1;"/><line style="stroke:#181818;stroke-width:1;" x1="1008.5796" x2="1008.5796" y1="676.3857" y2="696.3857"/><polygon fill="#181818" points="1004.5796,686.3857,1008.5796,696.3857,1012.5796,686.3857,1008.5796,690.3857" style="stroke:#181818;stroke-width:1;"/><line style="stroke:#181818;stroke-width:1;" x1="339.564" x2="339.564" y1="112.667" y2="117.667"/><line style="stroke:#181818;stroke-width:1;" x1="339.564" x2="1008.5796" y1="117.667" y2="117.667"/><line style="stroke:#181818;stroke-width:1;" x1="1008.5796" x2="1008.5796" y1="117.667" y2="132.667"/><polygon fill="#181818" points="1004.5796,122.667,1008.5796,132.667,1012.5796,122.667,1008.5796,126.667" style="stroke:#181818;stroke-width:1;"/><line style="stroke:#181818;stroke-width:1;" x1="1008.5796" x2="1008.5796" y1="166.6357" y2="171.6357"/><line style="stroke:#181818;stroke-width:1;" x1="1008.5796" x2="339.564" y1="171.6357" y2="171.6357"/><line style="stroke:#181818;stroke-width:1;" x1="339.564" x2="339.564" y1="171.6357" y2="186.6357"/><polygon fill="#181818" points="335.564,176.6357,339.564,186.6357,343.564,176.6357,339.564,180.6357" style="stroke:#181818;stroke-width:1;"/><line style="stroke:#181818;stroke-width:1;" x1="142.7529" x2="142.7529" y1="318.5732" y2="323.5732"/><line style="stroke:#181818;stroke-width:1;" x1="142.7529" x2="811.7686" y1="323.5732" y2="323.5732"/><line style="stroke:#181818;stroke-width:1;" x1="811.7686" x2="811.7686" y1="323.5732" y2="338.5732"/><polygon fill="#181818" points="807.7686,328.5732,811.7686,338.5732,815.7686,328.5732,811.7686,332.5732" style="stroke:#181818;stroke-width:1;"/><line style="stroke:#181818;stroke-width:1;" x1="536.375" x2="536.375" y1="318.5732" y2="323.5732"/><line style="stroke:#181818;stroke-width:1;" x1="536.375" x2="1205.3906" y1="323.5732" y2="323.5732"/><line style="stroke:#181818;stroke-width:1;" x1="1205.3906" x2="1205.3906" y1="323.5732" y2="338.5732"/><polygon fill="#181818" points="1201.3906,328.5732,1205.3906,338.5732,1209.3906,328.5732,1205.3906,332.5732" style="stroke:#181818;stroke-width:1;"/><line style="stroke:#181818;stroke-width:1;" x1="983.1304" x2="142.7529" y1="252.6045" y2="252.6045"/><line style="stroke:#181818;stroke-width:1;" x1="142.7529" x2="142.7529" y1="252.6045" y2="284.6045"/><polygon fill="#181818" points="138.7529,274.6045,142.7529,284.6045,146.7529,274.6045,142.7529,278.6045" style="stroke:#181818;stroke-width:1;"/><line style="stroke:#181818;stroke-width:1;" x1="1034.0288" x2="1046.0288" y1="252.6045" y2="252.6045"/><line style="stroke:#181818;stroke-width:1;" x1="1046.0288" x2="1046.0288" y1="252.6045" y2="270.6045"/><line style="stroke:#181818;stroke-width:1;" x1="1046.0288" x2="536.375" y1="270.6045" y2="270.6045"/><line style="stroke:#181818;stroke-width:1;" x1="536.375" x2="536.375" y1="270.6045" y2="284.6045"/><polygon fill="#181818" points="532.375,274.6045,536.375,284.6045,540.375,274.6045,536.375,278.6045" style="stroke:#181818;stroke-width:1;"/><line style="stroke:#181818;stroke-width:1;" x1="339.564" x2="339.564" y1="220.6045" y2="225.6045"/><line style="stroke:#181818;stroke-width:1;" x1="339.564" x2="1008.5796" y1="225.6045" y2="225.6045"/><line style="stroke:#181818;stroke-width:1;" x1="1008.5796" x2="1008.5796" y1="225.6045" y2="240.6045"/><polygon fill="#181818" points="1004.5796,230.6045,1008.5796,240.6045,1012.5796,230.6045,1008.5796,234.6045" style="stroke:#181818;stroke-width:1;"/><line style="stroke:#181818;stroke-width:1;" x1="1008.5796" x2="1008.5796" y1="406.542" y2="411.542"/><line style="stroke:#181818;stroke-width:1;" x1="1008.5796" x2="339.564" y1="411.542" y2="411.542"/><line style="stroke:#181818;stroke-width:1;" x1="339.564" x2="339.564" y1="411.542" y2="426.542"/><polygon fill="#181818" points="335.564,416.542,339.564,426.542,343.564,416.542,339.564,420.542" style="stroke:#181818;stroke-width:1;"/><line style="stroke:#181818;stroke-width:1;" x1="339.564" x2="339.564" y1="514.4795" y2="519.4795"/><line style="stroke:#181818;stroke-width:1;" x1="339.564" x2="1008.5796" y1="519.4795" y2="519.4795"/><line style="stroke:#181818;stroke-width:1;" x1="1008.5796" x2="1008.5796" y1="519.4795" y2="534.4795"/><polygon fill="#181818" points="1004.5796,524.4795,1008.5796,534.4795,1012.5796,524.4795,1008.5796,528.4795" style="stroke:#181818;stroke-width:1;"/><text fill="#000000" font-family="sans-serif" font-size="18" lengthAdjust="spacing" textLength="87.3545" x="302.7983" y="29.4531">&#1059;&#1095;&#1072;&#1089;&#1090;&#1085;&#1080;&#1082;</text><text fill="#000000" font-family="sans-serif" font-size="18" lengthAdjust="spacing" textLength="80.332" x="1026.4072" y="29.4531">&#1057;&#1080;&#1089;&#1090;&#1077;&#1084;&#1072;</text><!--SRC=[ZLCxJiD04ErzYYb9HUyKd0M9H4H20H6NBl8Xf0XI90v0-5nWOs9mJ69VOVP6l9aDaUtO4ONjtVMRD-_Dp8RyOMTixCYEUSS9fw4t22xl0y_dPpld5MTsI9pR8HR0u6juf-Y83N52l4RqsCxFESBFcBTuGDJsGdxZH95oQ48mBeK6WJ6-AHkVx8X_G3mcZaYf9TyCOLDogl1CXUf8P54UJXFEbKyulZL7nZ7aWHuISyxq1QsvQ4Bok4PWhqjd_2vS5oqAhZjzR5-BX2sFg4OBaL_6-V1JA9vw4ZFkzoVK8DX0R68VsBILjQAbZZClbu-GmC2WDiGreqpRkHbqO65Pu_w4apfusP3XL4iU8IpZJHMTD1fge3xofQCcO-MsM-JQsOcCIUBGo6qNg4rQyKoSDWohdQ0U_QjUjtwONX3rY4s68zJKFearlvhC45IKOaLtsrDdlDPB8IQ-O51lWSpWIjrXitTfTBtutmK1DXRVkHx5A5aC0OvxypVOJNvz9CWWVErodXGZMDUJFTOlZTVXAXrwOUSrVHy4jtU_]--></g></svg>